<?xml version="1.0" encoding="UTF-8" standalone="no"?>
<!-- Created with Inkscape (http://www.inkscape.org/) -->

<svg
   xmlns:dc="http://purl.org/dc/elements/1.1/"
   xmlns:cc="http://creativecommons.org/ns#"
   xmlns:rdf="http://www.w3.org/1999/02/22-rdf-syntax-ns#"
   xmlns:svg="http://www.w3.org/2000/svg"
   xmlns="http://www.w3.org/2000/svg"
   xmlns:sodipodi="http://sodipodi.sourceforge.net/DTD/sodipodi-0.dtd"
   xmlns:inkscape="http://www.inkscape.org/namespaces/inkscape"
   width="540mm"
   height="540mm"
   viewBox="0 0 540 540"
   version="1.1"
   id="svg8"
   inkscape:version="0.92.3 (2405546, 2018-03-11)"
   sodipodi:docname="akauangr.svg">
  <defs
     id="defs2" />
  <sodipodi:namedview
     id="base"
     pagecolor="#ffffff"
     bordercolor="#666666"
     borderopacity="1.0"
     inkscape:pageopacity="0.0"
     inkscape:pageshadow="2"
     inkscape:zoom="0.12374369"
     inkscape:cx="1397.1108"
     inkscape:cy="1233.9078"
     inkscape:document-units="mm"
     inkscape:current-layer="text817"
     showgrid="false"
     inkscape:window-width="1366"
     inkscape:window-height="705"
     inkscape:window-x="-8"
     inkscape:window-y="-8"
     inkscape:window-maximized="1" />
  <metadata
     id="metadata5">
    <rdf:RDF>
      <cc:Work
         rdf:about="">
        <dc:format>image/svg+xml</dc:format>
        <dc:type
           rdf:resource="http://purl.org/dc/dcmitype/StillImage" />
        <dc:title></dc:title>
      </cc:Work>
    </rdf:RDF>
  </metadata>
  <g
     inkscape:label="Camada 1"
     inkscape:groupmode="layer"
     id="layer1"
     transform="translate(0,243)">
    <g
       aria-label="a"
       transform="scale(1.0874689,0.91956652)"
       style="font-style:normal;font-weight:normal;font-size:258.20828247px;line-height:1.25;font-family:sans-serif;letter-spacing:0px;word-spacing:0px;fill:#000000;fill-opacity:1;stroke:none;stroke-width:6.45520735"
       id="text817">
      <path
         style="font-style:normal;font-variant:normal;font-weight:bold;font-stretch:normal;font-family:Consolas;-inkscape-font-specification:'Consolas Bold';text-orientation:upright;fill:#02a9f7;fill-opacity:1;stroke:#02577a;stroke-width:0;stroke-miterlimit:4;stroke-dasharray:none;stroke-opacity:1"
         d="m 251.60653,-190.98464 c -28.5211,0 -56.07301,2.63113 -82.65578,7.89232 -26.30588,5.26116 -49.56706,11.90702 -69.781045,19.93724 v 80.994876 c 22.706125,-10.245432 46.105255,-18.137036 70.195895,-23.675116 24.36754,-5.81498 49.01142,-8.72359 73.93277,-8.72359 15.78352,0 29.07586,1.66101 39.8751,4.98386 10.79925,3.32284 19.5218,8.03023 26.1675,14.122124 6.92261,6.09188 11.90624,13.568236 14.95218,22.429152 3.04594,8.584037 4.56816,18.276274 4.56816,29.075518 v 25.337632 h -55.24215 c -34.88989,0 -65.34827,3.459802 -91.37724,10.3823992 -25.75206,6.9225973 -47.35151,16.4770393 -64.79645,28.6608058 -7.87989,5.592191 -14.84386,11.687145 -20.915215,18.271013 l 56.530565,0.157369 0.26144,9.22159 h -0.18787 l 1.01446,100.891397 c 1.54685,0.66479 2.96507,1.79734 4.07971,3.38984 3.34117,4.77336 2.81869,11.94018 -1.33381,16.00495 -4.15252,4.0648 -10.21311,3.34234 -13.55419,-1.43109 -3.3411,-4.7733 -2.8077,-11.9476 1.34478,-16.01237 0.53242,-0.52118 1.09475,-0.96219 1.67979,-1.32742 L 145.36634,48.060343 88.876484,47.901126 c -3.828465,5.120254 -7.189006,10.497567 -10.058402,16.143807 -0.596211,1.21229 -1.165505,2.433991 -1.718929,3.661978 l 49.423137,0.136999 0.26144,9.221599 h -0.18942 l 1.01445,100.891401 c 1.54687,0.66477 2.96665,1.79733 4.08128,3.38982 3.34114,4.77337 2.81712,11.93834 -1.33538,16.00311 -4.15249,4.0648 -10.21154,3.34412 -13.55261,-1.42925 -3.34111,-4.77333 -2.81084,-11.9513 1.34164,-16.01607 0.53242,-0.52117 1.09631,-0.96034 1.68135,-1.32556 L 118.82625,77.04329 73.398286,76.913694 c -2.098563,5.931253 -3.717876,12.038282 -4.878131,18.313592 l 30.168938,0.0833 0.259876,9.221604 h -0.05947 l 0.886079,40.54835 c 1.546882,0.66479 2.965082,1.79923 4.079722,3.39169 3.34114,4.77336 2.81866,11.94016 -1.33382,16.00495 -4.152502,4.06477 -10.209972,3.34045 -13.551052,-1.43294 -3.341111,-4.77333 -2.810828,-11.94757 1.341644,-16.01236 0.532424,-0.52118 1.094753,-0.96224 1.679789,-1.32742 l -0.889209,-41.19449 -23.944476,-0.0685 c -0.532375,4.85164 -0.801541,9.7992 -0.801541,14.84601 0,19.38327 2.770086,37.1049 8.308166,53.16533 5.814979,16.06043 14.260056,29.76736 25.336209,41.12043 11.07616,11.35304 24.78235,20.21295 41.11968,26.58173 16.33733,6.36882 35.30621,9.553 56.90471,9.553 16.33734,0 31.28983,-1.661 44.85813,-4.98385 13.84518,-3.04597 26.58255,-7.4759 38.21253,-13.29087 11.62997,-5.81498 22.29016,-12.60048 31.9818,-20.35378 9.69162,-8.03022 18.96912,-16.75231 27.83006,-26.16704 l 2.49229,55.24254 h 86.80908 V 43.954041 l -31.78455,48.461045 c 1.01416,2.043 1.59995,4.40797 1.59995,6.92406 0,7.541814 -5.19303,13.779634 -11.75385,13.779634 -6.56072,0 -11.76637,-6.23782 -11.76637,-13.779634 0,-7.54177 5.20565,-13.78148 11.76637,-13.78148 0.84127,0 1.65873,0.1037 2.4469,0.29806 L 430.20929,25.6497 V -10.814571 L 392.6981,46.375605 c 1.01416,2.043014 1.60152,4.406131 1.60152,6.922219 0,7.541799 -5.19301,13.781477 -11.75385,13.781477 -6.56072,0 -11.76637,-6.239678 -11.76637,-13.781477 0,-7.541771 5.20565,-13.781478 11.76637,-13.781478 0.84128,0 1.65873,0.10369 2.4469,0.298065 l 45.21662,-68.93517 v -18.980085 c 0,-5.265149 -0.17978,-10.372967 -0.51819,-15.340316 L 386.97303,1.6876205 c 1.01416,2.043014 1.60152,4.407979 1.60152,6.924067 0,7.5417995 -5.19302,13.7814775 -11.75384,13.7814775 -6.56073,0 -11.76638,-6.239678 -11.76638,-13.7814775 0,-7.541771 5.20565,-13.781477 11.76638,-13.781477 0.84126,0 1.65716,0.10369 2.44532,0.298065 l 48.7171,-74.2707665 c -1.61813,-10.626945 -4.12198,-20.473315 -7.51288,-29.540219 l -12.88571,19.644724 c 1.01416,2.04301 1.60151,4.40613 1.60151,6.922219 0,7.541799 -5.19302,13.781477 -11.75384,13.781477 -6.56073,0 -11.76794,-6.239678 -11.76794,-13.781477 0,-7.541769 5.20721,-13.781489 11.76794,-13.781489 0.84126,0 1.65717,0.1037 2.44532,0.29808 l 15.85392,-24.169424 c -3.47475,-7.07046 -7.6326,-13.60426 -12.46302,-19.60955 l -34.04358,51.904554 c 1.01415,2.04302 1.60152,4.40798 1.60152,6.924071 0,7.541799 -5.19303,13.779629 -11.75385,13.779629 -6.56073,0 -11.76637,-6.23783 -11.76637,-13.779629 0,-7.541771 5.20564,-13.781481 11.76637,-13.781481 0.84126,0 1.65717,0.10369 2.44532,0.29807 l 34.83573,-53.109794 c -2.79956,-2.84494 -5.76781,-5.5573 -8.92654,-8.12003 -14.399,-11.90688 -32.81295,-20.76862 -55.24214,-26.58359 -22.42922,-6.0919 -49.28821,-9.13829 -80.57836,-9.13829 z m 15.36704,244.645327 h 61.88774 v 56.488523 c -18.27567,19.10637 -35.02786,33.78162 -50.25756,44.02705 -15.22972,10.24545 -29.90474,15.36809 -44.02683,15.36809 -19.10638,0 -34.19839,-4.42996 -45.27455,-13.29087 -11.07616,-9.13785 -16.61475,-22.29172 -16.61475,-39.45976 0,-8.58404 1.66173,-16.61342 4.98458,-24.089834 3.59975,-7.7533 9.13835,-14.536954 16.61475,-20.351928 7.47641,-5.814994 17.16779,-10.384579 29.07465,-13.707429 11.90687,-3.322849 26.44393,-4.983842 43.61197,-4.983842 z"
         id="path819"
         inkscape:connector-curvature="0" />
    </g>
  </g>
</svg>
